PathFileType	4	(X/Y/Z)	 s07c0001.trc
DataRate	CameraRate	NumFrames	NumMarkers	Units	OrigDataRate	OrigDataStartFrame	OrigNumFrames
200	200	4	49	mm	200	751	2000
Frame#	Time	racr			lacr			c7			jug			rlel			rdr			llel			ldr			s2			lic			ric			lasi			rasi			rpsi			lpsi			rgt			lgt			rth1			rth2			rth3			rth4			rlfc			rmfc			rsh1			rsh2			rsh3			rsh4			rlmal			rmmal			rcal			rtoe			rmt5			rmt1			lth1			lth2			lth4			lth3			llfc			lmfc			lsh1			lsh2			lsh3			lsh4			llmal			lmmal			lcal			ltoe			lmt1			lmt5			
		X1	Y1	Z1	X2	Y2	Z2	X3	Y3	Z3	X4	Y4	Z4	X5	Y5	Z5	X6	Y6	Z6	X7	Y7	Z7	X8	Y8	Z8	X9	Y9	Z9	X10	Y10	Z10	X11	Y11	Z11	X12	Y12	Z12	X13	Y13	Z13	X14	Y14	Z14	X15	Y15	Z15	X16	Y16	Z16	X17	Y17	Z17	X18	Y18	Z18	X19	Y19	Z19	X20	Y20	Z20	X21	Y21	Z21	X22	Y22	Z22	X23	Y23	Z23	X24	Y24	Z24	X25	Y25	Z25	X26	Y26	Z26	X27	Y27	Z27	X28	Y28	Z28	X29	Y29	Z29	X30	Y30	Z30	X31	Y31	Z31	X32	Y32	Z32	X33	Y33	Z33	X34	Y34	Z34	X35	Y35	Z35	X36	Y36	Z36	X37	Y37	Z37	X38	Y38	Z38	X39	Y39	Z39	X40	Y40	Z40	X41	Y41	Z41	X42	Y42	Z42	X43	Y43	Z43	X44	Y44	Z44	X45	Y45	Z45	X46	Y46	Z46	X47	Y47	Z47	X48	Y48	Z48	X49	Y49	Z49	
751	3.7550	169.132094	1567.584766	563.415251	195.749523	1569.317505	193.502548	137.021611	1607.456554	375.153636	258.000053	1516.501563	384.804102	236.762909	1221.673608	692.255596	387.476241	983.550129	802.922966	272.003796	1216.114557	94.174269	426.809819	979.080231	-10.644416	106.139708	1059.989200	365.219204	251.030836	1143.747719	228.964914	238.165347	1131.913614	533.207444	316.501535	1076.625055	262.115080	286.947754	1073.752286	525.553754	119.287282	1093.560983	421.943081	134.293562	1102.207946	309.698419	204.029950	975.766557	561.597458	235.659177	973.770268	211.517645	213.824661	847.388677	564.099740	237.531001	762.608410	556.395515	217.905708	679.584658	547.337618	273.820783	764.846033	548.743492	217.531474	538.137772	512.981896	226.772994	527.341738	417.228567	178.713063	400.043377	529.702508	196.997934	314.177173	510.093075	169.043585	232.202948	503.946853	220.046394	318.354103	477.650686	158.734578	91.485137	488.772121	200.901655	105.613921	411.245482	113.785510	41.114437	447.018185	395.221959	86.391279	505.256316	311.004759	36.291006	556.984296	328.029667	44.068938	449.545024	246.656619	856.413665	197.401006	270.428682	771.876555	204.518177	305.020928	773.140846	218.857151	248.047995	686.248549	212.452812	244.145279	531.453558	240.626234	238.797062	515.456560	328.581527	210.258484	396.190949	215.648077	227.356718	314.027562	236.847490	200.986622	226.803168	232.627569	237.602667	317.357663	276.965924	190.616386	90.897008	243.500082	224.945837	111.765627	324.721123	141.549877	37.497461	280.132402	423.068687	92.994292	249.183342	359.030969	47.745839	297.238453	345.595791	52.982626	192.461464	
752	3.7600	169.108740	1567.597486	563.394718	195.732407	1569.320148	193.478749	136.991721	1607.454537	375.112971	257.960159	1516.505269	384.766417	236.748056	1221.694665	692.238604	387.480009	983.577453	802.923103	271.990837	1216.114761	94.170072	426.777624	979.063377	-10.613753	106.109317	1059.992250	365.193945	251.000566	1143.761836	228.944354	238.149743	1131.911198	533.170067	316.476906	1076.629323	262.081220	286.926248	1073.756215	525.526434	119.276865	1093.560477	421.925589	134.272001	1102.217168	309.681214	204.000073	975.785718	561.573978	235.633599	973.760916	211.485397	213.820784	847.396161	564.059560	237.532056	762.619886	556.396235	217.906567	679.579107	547.313137	273.812391	764.838277	548.716050	217.530942	538.128871	512.957481	226.761709	527.342890	417.203775	178.723184	400.063483	529.691629	197.012031	314.180193	510.086025	169.058041	232.204242	503.935133	220.045423	318.361165	477.646198	158.756301	91.489760	488.771363	200.905557	105.611988	411.251162	113.785448	41.147717	446.994577	395.220576	86.388263	505.261608	311.002634	36.291177	556.978257	328.041526	44.055824	449.538236	246.630089	856.414817	197.373182	270.428025	771.870383	204.521153	304.994336	773.122529	218.835664	248.042889	686.231860	212.435228	244.132994	531.440664	240.630359	238.799740	515.458624	328.572412	210.257941	396.178566	215.660351	227.355257	314.036552	236.842417	200.986094	226.794527	232.613725	237.597191	317.337651	276.968674	190.631795	90.884400	243.508109	224.929049	111.758523	324.713480	141.541421	37.491711	280.162656	423.068804	92.979043	249.180605	358.969358	47.693948	297.198278	345.592127	52.974694	192.476797	
753	3.7650	169.069295	1567.613620	563.383225	195.716026	1569.321990	193.440282	136.970905	1607.453074	375.083995	257.947342	1516.509497	384.762610	236.737528	1221.721226	692.264999	387.501020	983.608196	802.928699	271.988959	1216.099854	94.180285	426.764109	979.038490	-10.570212	106.091577	1059.985562	365.172769	250.962137	1143.757988	228.914056	238.128964	1131.913240	533.157686	316.430189	1076.631990	262.065397	286.904796	1073.748935	525.494498	119.281259	1093.549644	421.892097	134.246102	1102.218864	309.658230	204.017819	975.770632	561.549269	235.607749	973.759353	211.462384	213.817935	847.390919	564.040228	237.523500	762.620108	556.363311	217.903171	679.575712	547.285192	273.809744	764.839181	548.687427	217.540664	538.132449	512.931321	226.761726	527.342859	417.203754	178.725708	400.051007	529.688493	197.007457	314.183707	510.077983	169.042706	232.194721	503.934324	220.049355	318.366385	477.638890	158.757475	91.488404	488.772696	200.902993	105.616602	411.231032	113.774612	41.130520	447.005950	395.219960	86.403469	505.259917	311.010688	36.294665	556.995958	328.029559	44.049621	449.549828	246.594678	856.435758	197.331758	270.401951	771.868705	204.496296	304.974254	773.133395	218.803150	248.015913	686.236521	212.416661	244.116161	531.424683	240.611073	238.792048	515.458688	328.552652	210.240902	396.185332	215.640208	227.338998	314.034435	236.837141	200.968103	226.797328	232.623897	237.581292	317.334509	276.959306	190.614502	90.891627	243.502030	224.944548	111.755718	324.722611	141.554606	37.504593	280.126261	423.053110	92.998774	249.171985	358.978546	47.703936	297.219363	345.590213	52.967953	192.483004	
754	3.7700	169.050735	1567.609640	563.346115	195.701703	1569.322157	193.410215	136.923683	1607.444437	375.056512	257.926188	1516.515189	384.732589	236.742191	1221.711766	692.245455	387.498453	983.647832	802.948671	271.968180	1216.087497	94.177860	426.736859	979.014322	-10.538606	106.073864	1059.988309	365.151501	250.922363	1143.772353	228.889604	238.119937	1131.919079	533.121719	316.434980	1076.647109	262.034804	286.888826	1073.759065	525.459790	119.220596	1093.556493	421.889130	134.226379	1102.211674	309.639154	203.968335	975.786991	561.514637	235.590228	973.749496	211.433809	213.792486	847.408461	564.012596	237.520083	762.607801	556.328862	217.908189	679.586415	547.280118	273.811138	764.846015	548.657063	217.543994	538.138876	512.932925	226.770348	527.340584	417.177270	178.715250	400.050629	529.675779	197.013599	314.188084	510.064401	169.045311	232.205429	503.940174	220.051763	318.348982	477.632362	158.760305	91.476815	488.779173	200.903614	105.609253	411.244037	113.777997	41.133534	447.020830	395.223368	86.376188	505.263123	311.013977	36.289773	556.974899	328.031086	44.047763	449.545244	246.557063	856.431572	197.295399	270.374848	771.870753	204.472969	304.951350	773.115051	218.777483	247.996854	686.244482	212.404048	244.118225	531.436650	240.601454	238.774851	515.458665	328.542950	210.232144	396.192558	215.615601	227.341864	314.020831	236.815135	200.962390	226.800212	232.599838	237.575723	317.343148	276.947842	190.599711	90.902676	243.486062	224.932853	111.765264	324.718303	141.544942	37.490571	280.150800	423.068592	92.991375	249.180892	358.984164	47.722727	297.223886	345.590660	52.968624	192.482041	
